<svg xmlns="http://www.w3.org/2000/svg" width="36" height="48" viewBox="0 0 36 48"><defs><style>.a{fill:#ebaf88;}.b{fill:#1a1a1a;}</style></defs><g transform="translate(0.135)"><path class="a" d="M0,0H16A20,20,0,0,1,36,20v8A20,20,0,0,1,16,48H0a0,0,0,0,1,0,0V0A0,0,0,0,1,0,0Z" transform="translate(-0.135)"/><path class="b" d="M15.036,20a.775.775,0,0,1-.561-.244l-6.484-6.81a4.316,4.316,0,0,1,0-5.892L14.475.244a.767.767,0,0,1,1.122,0,.863.863,0,0,1,0,1.179L9.113,8.233a2.59,2.59,0,0,0,0,3.535l6.484,6.81a.864.864,0,0,1,.172.908A.794.794,0,0,1,15.036,20Z" transform="translate(6.486 14)"/></g></svg>