<svg xmlns="http://www.w3.org/2000/svg" width="18.58" height="18.614" viewBox="0 0 18.58 18.614"><defs><style>.a{fill:none;stroke:#3d3d3d;stroke-linecap:round;stroke-linejoin:round;stroke-width:1.5px;}</style></defs><path class="a" d="M20.246,15.812v2.576a1.717,1.717,0,0,1-1.872,1.717,16.994,16.994,0,0,1-7.411-2.636,16.745,16.745,0,0,1-5.152-5.152A16.994,16.994,0,0,1,3.175,4.872,1.717,1.717,0,0,1,4.884,3H7.46A1.717,1.717,0,0,1,9.177,4.477a11.026,11.026,0,0,0,.6,2.413A1.717,1.717,0,0,1,9.392,8.7L8.3,9.792a13.739,13.739,0,0,0,5.152,5.152l1.091-1.091a1.717,1.717,0,0,1,1.812-.386,11.026,11.026,0,0,0,2.413.6A1.717,1.717,0,0,1,20.246,15.812Z" transform="translate(-2.417 -2.25)"/></svg>