<svg xmlns="http://www.w3.org/2000/svg" width="24" height="24" viewBox="0 0 24 24"><defs><style>.a{fill:#3d3d3d;}</style></defs><g transform="translate(0.032 0.032)"><path class="a" d="M23.675,22.263,17.714,16.3A10,10,0,1,0,16.3,17.714l5.961,5.961a1,1,0,1,0,1.412-1.412ZM9.987,17.976a7.989,7.989,0,1,1,7.989-7.989,7.989,7.989,0,0,1-7.989,7.989Z" transform="translate(0 0)"/><path class="a" d="M13,9H11V7A1,1,0,0,0,9,7V9H7a1,1,0,0,0,0,2H9v2a1,1,0,0,0,2,0V11h2a1,1,0,0,0,0-2Z" transform="translate(-0.012 -0.012)"/></g></svg>